<?xml version="1.0" encoding="utf-8"?>
<!-- Generator: Adobe Illustrator 19.2.1, SVG Export Plug-In . SVG Version: 6.00 Build 0)  -->
<svg version="1.1" id="Layer_1" xmlns="http://www.w3.org/2000/svg" xmlns:xlink="http://www.w3.org/1999/xlink" x="0px" y="0px"
	 viewBox="0 0 70.2 70.2" style="enable-background:new 0 0 70.2 70.2;" xml:space="preserve">
<style type="text/css">
	.st0{fill:#633E11;}
	.st1{fill:#BC8D5E;}
	.st2{fill:#7F5119;}
	.st3{fill:#A36924;}
	.st4{fill:#704710;}
</style>
<circle class="st0" cx="35.1" cy="35.1" r="35.1"/>
<circle class="st1" cx="35.1" cy="35.1" r="33"/>
<circle class="st2" cx="35.1" cy="35.1" r="31.5"/>
<path class="st1" d="M29,48.9l-1.1,1.5l2.4,1.7l-0.4,2.6l2.6-0.7l1.1,2.4l2.4-1.7l2.4,1.8l0.9-2.2l2.7,0.2l-0.5-2.7l2.6-1.1L40.9,46
	C40.9,46,33.7,39.1,29,48.9z"/>
<path class="st1" d="M48.2,50.2c-0.3,0-4.4,3.7-4.4,3.7l0.7,0.7l3.1-2.3L42.8,59l1.5,0.8l4.5-7.5l-1.5,4.5l1.9,0.3l1.2-6.3
	c0,0,2.8-8.7,9.8-11.2L58,38.3l1.4-3.6l-3.2,1.9l-1-2.7c0,0-6.3,10.1-6.1,14.1"/>
<path class="st1" d="M24.7,48l-1.8-2.2l1.9-2.3l-3-2.1l-1.3,1.1l-1.3-1.6l0.9-1.4l-1.3-1.5l-1.2,1.2c0,0-4.4-2.9-4.7-2.7
	c-0.3,0.2-1.9,3-1.9,3l3,1.3l-2,2.1l3,1.3l1.9-1.6l1.7,0.9L17,45.6l1.2,2.2l2.4-0.7l1.4,1L24.7,48z"/>
<g>
	<path class="st1" d="M48.7,15.5c-1.1-0.6-2.1-1.1-3.1-1.5l-4.5,11.4c0.4,0.2,0.7,0.4,1.1,0.6L48.7,15.5z"/>
	<path class="st1" d="M44.1,13.4c-1.1-0.4-2.2-0.7-3.2-1l-2.8,11.9c0.7,0.2,1.4,0.4,2.1,0.7L44.1,13.4z"/>
	<path class="st1" d="M37.6,24.2l1.6-12.1c-0.9-0.2-1.8-0.3-2.7-0.3L36.3,24C36.7,24.1,37.2,24.1,37.6,24.2z"/>
	<path class="st1" d="M30.9,24.8l-7.3-10.3c-1.2,0.6-2.3,1.3-3.1,1.9l9.3,8.9C30.1,25.1,30.5,25,30.9,24.8z"/>
	<path class="st1" d="M34.8,11.7c-1.2,0-2.3,0.1-3.4,0.3l2.4,12.1c0.5-0.1,1.1-0.1,1.7-0.1L34.8,11.7z"/>
	<path class="st1" d="M29,12.5c-1.1,0.3-2.1,0.6-3.1,1l5.9,11c0.5-0.1,0.9-0.2,1.4-0.3L29,12.5z"/>
	<path class="st1" d="M50.6,16.7L43,26.6c0.2,0.1,0.4,0.3,0.6,0.4l10.4-8C52.8,18.2,51.7,17.4,50.6,16.7z"/>
	<path class="st1" d="M19.5,17.1c-1.3,1-2,1.8-2,1.8l10.4,7.5c0,0,0.3-0.2,0.9-0.5L19.5,17.1z"/>
</g>
<path class="st1" d="M39.8,31.4c0.2-2.5-2.3-5.9-2.3-5.9c-3.3-1.3-8.3,1.7-8.3,1.7h4.9c0,0-2.9,3.4-3,5.1
	C31,33.9,39.8,31.4,39.8,31.4z"/>
<path class="st3" d="M53,24.9l3.1-3l-1-1.7L44,27.3v7.2h-7.1h-2.2h-7.1v-7.2l-11.1-7.1l-1,1.7l3.1,3c0,0,0.5,10.4,3.9,13.9
	c3.4,3.5,7.6,4.2,7.6,4.2l-4,4l-5.8,1.4l0.7,4.4l3.8-3.3h4.2l2.7-1.2l0.1,1.3c0,0,3.4,1.7,4,2l0,0c0,0,0,0,0,0c0,0,0,0,0,0l0,0
	c0.7-0.2,4-2,4-2l0.1-1.3l2.7,1.2h4.2l3.8,3.3l0.7-4.4l-5.8-1.4l-3.9-4c0,0,4.2-0.8,7.6-4.2C52.6,35.4,53,24.9,53,24.9z"/>
<circle class="st1" cx="34.9" cy="6.7" r="1.8"/>
<circle class="st1" cx="35.4" cy="63.5" r="1.8"/>
<circle class="st1" cx="6.9" cy="36.9" r="1.8"/>
<circle class="st1" cx="63.3" cy="37.8" r="1.8"/>
<ellipse transform="matrix(0.7069 -0.7073 0.7073 0.7069 4.5909 45.7118)" class="st1" cx="57.5" cy="17.3" rx="1.8" ry="1.8"/>
<ellipse transform="matrix(0.7073 -0.7069 0.7069 0.7073 -34.8794 28.7823)" class="st1" cx="17.3" cy="56.5" rx="1.8" ry="1.8"/>
<ellipse transform="matrix(0.7073 -0.7069 0.7069 0.7073 -7.8137 14.1476)" class="st1" cx="13.2" cy="16.5" rx="1.8" ry="1.8"/>
<ellipse transform="matrix(0.7068 -0.7074 0.7074 0.7068 -23.3076 55.4478)" class="st1" cx="55.2" cy="55.8" rx="1.8" ry="1.8"/>
<ellipse transform="matrix(0.3883 -0.9215 0.9215 0.3883 19.9311 50.0857)" class="st1" cx="47.7" cy="10" rx="1.8" ry="1.8"/>
<ellipse transform="matrix(0.3882 -0.9216 0.9216 0.3882 -41.173 61.3036)" class="st1" cx="25.6" cy="61.7" rx="1.8" ry="1.8"/>
<ellipse transform="matrix(0.3885 -0.9214 0.9214 0.3885 -18.6028 23.5187)" class="st1" cx="8.4" cy="25.8" rx="1.8" ry="1.8"/>
<ellipse transform="matrix(0.388 -0.9217 0.9217 0.388 -7.9489 85.2609)" class="st1" cx="60.2" cy="48.6" rx="1.8" ry="1.8"/>
<ellipse transform="matrix(0.9261 -0.3774 0.3774 0.9261 -5.55 25.3386)" class="st1" cx="61.9" cy="26.8" rx="1.8" ry="1.8"/>
<ellipse transform="matrix(0.9261 -0.3774 0.3774 0.9261 -17.8025 7.8481)" class="st1" cx="11.1" cy="49.4" rx="1.8" ry="1.8"/>
<ellipse transform="matrix(0.926 -0.3775 0.3775 0.926 -2.0603 9.0367)" class="st1" cx="22" cy="9.8" rx="1.8" ry="1.8"/>
<ellipse transform="matrix(0.9261 -0.3774 0.3774 0.9261 -19.8601 21.9258)" class="st1" cx="46" cy="61.6" rx="1.8" ry="1.8"/>
<g>
	<polygon class="st4" points="36.3,31.3 35.3,31.3 28.2,31.3 28.2,36.5 43.3,36.5 43.3,31.3 	"/>
	<polygon class="st1" points="36.3,36.2 35.3,36.2 28.2,36.2 28.2,40.2 35.2,47.8 35.4,47.8 36.2,47.8 36.4,47.8 43.3,40.2 
		43.3,36.2 	"/>
	<g>
		<polygon class="st4" points="30.5,36.2 28.2,36.2 28.2,40.2 30.5,42.7 		"/>
		<polygon class="st4" points="37.4,36.2 36.3,36.2 35.3,36.2 33.6,36.2 33.6,46 35.2,47.8 35.4,47.8 36.2,47.8 36.4,47.8 
			37.4,46.6 		"/>
		<polygon class="st4" points="40.5,36.2 40.5,43.3 43.3,40.2 43.3,36.2 		"/>
	</g>
</g>
</svg>
